<svg width="25" height="25" viewBox="0 0 25 25" fill="none" xmlns="http://www.w3.org/2000/svg">
<path d="M9.45881 8.31608C9.43985 8.54149 9.11185 8.59848 9.00636 8.3947L8.43828 7.29756C8.40154 7.22647 8.32669 7.17897 8.24203 7.17281L6.93478 7.07799C6.69194 7.06038 6.63055 6.75591 6.8501 6.65796L8.0319 6.13063C8.10843 6.09647 8.15971 6.02705 8.16626 5.94843L8.26843 4.73483C8.28739 4.50942 8.61539 4.45243 8.72088 4.65621L9.28896 5.75335C9.3257 5.82444 9.40046 5.87196 9.48521 5.8781L10.7925 5.97293C11.0353 5.99053 11.0967 6.29501 10.8771 6.39295L9.69534 6.92028C9.61872 6.95446 9.56753 7.02387 9.56098 7.10248L9.45881 8.31608Z" fill="white"/>
<path d="M5.70599 9.14419C5.67434 9.25336 5.50749 9.25336 5.47584 9.14419L5.30537 8.55648C5.29436 8.5184 5.26227 8.48866 5.22128 8.47841L4.58821 8.32017C4.47061 8.29078 4.47061 8.1359 4.58821 8.10651L5.22128 7.94827C5.26227 7.93801 5.29436 7.90827 5.30537 7.8702L5.47584 7.28248C5.50749 7.17332 5.67434 7.17332 5.70599 7.28248L5.87646 7.8702C5.88747 7.90827 5.91951 7.93801 5.96055 7.94827L6.59362 8.10651C6.71122 8.1359 6.71122 8.29078 6.59362 8.32017L5.96055 8.47841C5.91951 8.48866 5.88747 8.5184 5.87646 8.55648L5.70599 9.14419Z" fill="white"/>
<path d="M7.88782 12.52C7.85616 12.6291 7.68931 12.6291 7.65766 12.52L7.48719 11.9322C7.47618 11.8942 7.4441 11.8644 7.4031 11.8542L6.77003 11.6959C6.65243 11.6665 6.65243 11.5117 6.77003 11.4823L7.4031 11.324C7.4441 11.3138 7.47618 11.284 7.48719 11.246L7.65766 10.6582C7.68931 10.5491 7.85616 10.5491 7.88782 10.6582L8.05829 11.246C8.0693 11.284 8.10133 11.3138 8.14238 11.324L8.77544 11.4823C8.89305 11.5117 8.89305 11.6665 8.77544 11.6959L8.14238 11.8542C8.10133 11.8644 8.0693 11.8942 8.05829 11.9322L7.88782 12.52Z" fill="white"/>
<path d="M6.03127 11.1969C6.01017 11.2697 5.89894 11.2697 5.87783 11.1969L5.76419 10.8051C5.75684 10.7797 5.73546 10.7599 5.70813 10.7531L5.28608 10.6476C5.20768 10.628 5.20768 10.5247 5.28608 10.5051L5.70813 10.3997C5.73546 10.3928 5.75684 10.373 5.76419 10.3476L5.87783 9.9558C5.89894 9.88302 6.01017 9.88302 6.03127 9.9558L6.14492 10.3476C6.15226 10.373 6.17361 10.3928 6.20098 10.3997L6.62302 10.5051C6.70142 10.5247 6.70142 10.628 6.62302 10.6476L6.20098 10.7531C6.17361 10.7599 6.15226 10.7797 6.14492 10.8051L6.03127 11.1969Z" fill="white"/>
<path d="M11.1222 9.84664C11.101 9.91941 10.9898 9.91941 10.9687 9.84664L10.8551 9.45482C10.8477 9.42944 10.8263 9.40961 10.799 9.40278L10.377 9.29728C10.2986 9.27769 10.2986 9.17444 10.377 9.15484L10.799 9.04935C10.8263 9.04251 10.8477 9.02269 10.8551 8.9973L10.9687 8.60549C10.9898 8.53272 11.101 8.53272 11.1222 8.60549L11.2358 8.9973C11.2431 9.02269 11.2645 9.04251 11.2919 9.04935L11.7139 9.15484C11.7923 9.17444 11.7923 9.27769 11.7139 9.29728L11.2919 9.40278C11.2645 9.40961 11.2431 9.42944 11.2358 9.45482L11.1222 9.84664Z" fill="white"/>
<path d="M18.3182 18.003L17.5909 18.6782M8.15777 9.04229L19.9624 19.0877C20.2555 19.3371 20.2654 19.7629 19.9843 20.0239V20.0239C19.7043 20.2839 19.2496 20.2777 18.9805 20.008C14.9047 15.9231 7.72842 8.70748 8.15777 9.04229Z" stroke="white"/>
</svg>
